
<global>
amp_veltrack=0
ampeg_release=0.2
</global>

<group>
group_label=PP
lpc_hicc1=42
lpc_locc1=0

<region>
hikey=B2
hivel=127
lokey=A#2
loop_end=195070
loop_mode=loop_continuous
loop_start=65919
loop_xfade=24512
lovel=1
lpc=oWR8Qn+AF8OWcr5CHN+UPgEMcEFg9K/BgO6pv0vCO8B7g7pABiUQwN/rPb9cqjW+j8TfP5WRfz8Be2e/ZdTyPuV8VL/Q+FK+Tk0yPIHe1T/lhZq/4wFRP+1REsDNwL4/
lpc_rms=-57.37
offset=221
pitch_keycenter=A#2
sample=Trombone_Muted_PP_A#3.opus
tune=-10
</region>

<region>
hikey=B3
hivel=127
lokey=A#3
loop_end=188167
loop_mode=loop_continuous
loop_start=63586
loop_xfade=23644
lovel=1
lpc=WQXZQqTIm8PhSotDNY9NwguCtUCmFmrCTRPKQdIh1z92owZBKh9twLkl5sAqdai/oompQNv9Pr88zT5BPQORwGU4GsEYqsPApjXZP1azSUFvEyxA/UMbvpmLgMERYw5B
lpc_rms=-49.50
offset=556
pitch_keycenter=A#3
sample=Trombone_Muted_PP_A#4.opus
tune=-8
</region>

<region>
hivel=127
key=A#4
loop_end=174061
loop_mode=loop_continuous
loop_start=58820
loop_xfade=21872
lovel=1
lpc=EbiJQqIAP8Oi7jVDvayQwtXTKUKRIFbCgBEGQgOGrcElJyRCjMZFwvcHrkEych/BmyvIQb9Df8Hr3/XARXoMQWV3SsAW+elADLYZwSdaFEFlFsrAvGARQQSBccE+0wBB
lpc_rms=-49.66
offset=167
sample=Trombone_Muted_PP_A#5.opus
tune=+2
</region>

<region>
hikey=C#3
hivel=127
lokey=C3
loop_end=196013
loop_mode=loop_continuous
loop_start=66238
loop_xfade=24630
lovel=1
lpc=xMgUQm79msIx/Q1CgBeSQBdjRUHKzAPBeP4jwA8uW8BzFcQ/y9VsPktGgz4eWkq+j18MPx5fwL40ovw9mjUKP7Ocxz2YWA4+RqUWvsaBlr9QLvo+QGF3vRcWoT9vtjy/
lpc_rms=-63.85
offset=8275
pitch_keycenter=C3
sample=Trombone_Muted_PP_C4.opus
tune=+3
</region>

<region>
hikey=C#4
hivel=127
lokey=C4
loop_end=191704
loop_mode=loop_continuous
loop_start=64782
loop_xfade=24089
lovel=1
lpc=5J6RQlyOP8OQAQ5DBpZxwM5z30Ao/A/CG99PQMf6cz7cxhtBOexpv8s8T8DmiaO/EAbOP6Ev1DxXny5A0VkeP2AcRsA9QRrATQXPv6futUBd6dw/J6YMPMQY58BkDoZA
lpc_rms=-54.92
offset=283
sample=Trombone_Muted_PP_C5.opus
tune=-8
</region>

<region>
hikey=D#3
hivel=127
lokey=D3
loop_end=196013
loop_mode=loop_continuous
loop_start=66238
loop_xfade=24630
lovel=1
lpc=aX+LQudaHMN2op9ChoIpQaD0uEGQ+ZXBXp8Gwflzy8BKWGhAKYHXPyT7hT91JTM+TuNIv+PlWD9NOQRApWkVP7VgbL8VY2q/gVCWv6t5ib+XTao+zVXXP51N9j6s0DK/
lpc_rms=-57.61
offset=5389
pitch_keycenter=D3
sample=Trombone_Muted_PP_D4.opus
tune=-18
</region>

<region>
hikey=D#4
hivel=127
lokey=D4
loop_end=192459
loop_mode=loop_continuous
loop_start=65037
loop_xfade=24183
lovel=1
lpc=pd3mQpC9psNa6ZZDyXtkws/siD8j+V3CedTlQepqw8BO+wdBuk+LwFWxpsBJQsNAMMzSQKlHmr/eRX/Au40kwDFKWsAn1EJARrcNP/T7zUBcRq2/LRFGwVbGW0HLhZ3A
lpc_rms=-49.09
offset=634
pitch_keycenter=D4
sample=Trombone_Muted_PP_D5.opus
tune=-11
</region>

<region>
hikey=F2
hivel=127
lokey=E2
loop_end=195228
loop_mode=loop_continuous
loop_start=65973
loop_xfade=24531
lovel=1
lpc=Lcc8QhYZyMKq7zFCB3LhQNvuk0EuGwnBTPiewHZpyMDzPJm+MJ+BvogHmj+6Tp4/SaOAP79trz/HgjQ+HfQJv9rLoL+UzZG+0NdLvlqV8L2+Hdk9pemEPwKU7T7Z/U2/
lpc_rms=-61.59
offset=867
pitch_keycenter=E2
sample=Trombone_Muted_PP_E3.opus
tune=-28
</region>

<region>
hikey=F3
hivel=127
lokey=E3
loop_end=194971
loop_mode=loop_continuous
loop_start=65886
loop_xfade=24499
lovel=1
lpc=vkx/Qrb1HcP8NdZCOigdwPVFWUEHxuTBbQ2iPzodaL+zsMZAVOOvv+ZpB7+M1io/LRioPWUxMb8KRIc/2Yq0v9dppz91Zme//SubPnqIcr5k9A5AyZLtPpJko8CPN0JA
lpc_rms=-56.75
offset=1643
pitch_keycenter=E3
sample=Trombone_Muted_PP_E4.opus
tune=-16
</region>

<region>
hikey=F4
hivel=127
lokey=E4
loop_end=190505
loop_mode=loop_continuous
loop_start=64377
loop_xfade=23938
lovel=1
lpc=VRSwQiuldcMsI1JDxob8wTUfuEAfBD7Clr6YQfsFZMANfhRBgo1VwGOE7b5KLTbAfYeXQDHbOb4FjI8/qgh4P4NP/MAfvOc/4x1dP4LBOEBHziO/m7vEQBQ8JsHorG5A
lpc_rms=-51.87
offset=871
pitch_keycenter=E4
sample=Trombone_Muted_PP_E5.opus
tune=-10
</region>

<region>
hikey=G2
hivel=127
lokey=F#2
loop_end=196013
loop_mode=loop_continuous
loop_start=66238
loop_xfade=24630
lovel=1
lpc=h9cvQgFcwcK+UERCOkW1QJxrXUExFz/B3UlVwGRLX8BgdgNAJWikvf4RLD0cHGQ+BjOcP5HBoz3MXZY+P5wxv5F+Ej4Ch/69Iz4jPO9wiL/JRjY/cwVIPgBPoT9LYpS/
lpc_rms=-61.82
offset=3842
pitch_keycenter=F#2
sample=Trombone_Muted_PP_F#3.opus
tune=-15
</region>

<region>
hikey=G3
hivel=127
lokey=F#3
loop_end=192255
loop_mode=loop_continuous
loop_start=64968
loop_xfade=24158
lovel=1
lpc=DCOMQsz+O8OYvBRDqshuwTyc9kB4AgjCkZhcQKNvFECrfABBEdPfvr2PZcAIk32/v8m6PyVjbz9kHIE/M/2Nvxy+DMB7sfg/wrKcPQmPPj7d4eW/iVAQQBRJeL+OuOQ9
lpc_rms=-54.73
offset=1624
pitch_keycenter=F#3
sample=Trombone_Muted_PP_F#4.opus
tune=-3
</region>

<region>
hikey=G4
hivel=127
lokey=F#4
loop_end=194053
loop_mode=loop_continuous
loop_start=65575
loop_xfade=24384
lovel=1
lpc=rOCaQpDRW8Ng4URD6jwJwhSGaUCdaFDCSlfIQcyoNkD8Nk5BffVVweUyFb9x3LPAXmFSQZhjvz1qLx7BaT3iQBcUzsCWSFlAqczwP86imb1utCa/eSeIv4Otl7+H6us/
lpc_rms=-52.34
offset=1219
pitch_keycenter=F#4
sample=Trombone_Muted_PP_F#5.opus
tune=-18
</region>

<region>
hikey=A2
hivel=127
lokey=G#2
loop_end=196013
loop_mode=loop_continuous
loop_start=66238
loop_xfade=24630
lovel=1
lpc=T8I2Qq5Y3MLIeItCwHU6QO+JCEHVDY/Bjzj9v+Z8Cr4gxplA6gxrvgh1278hAl6/E48ePzwfZz+Cxtg/6EbAPbwdhb82ZcK/M8pWv3tULT/8TGA/jgIPPytg7z6LlHK/
lpc_rms=-60.19
offset=7720
pitch_keycenter=G#2
sample=Trombone_Muted_PP_G#3.opus
tune=-13
</region>

<region>
hikey=A3
hivel=127
lokey=G#3
loop_end=192519
loop_mode=loop_continuous
loop_start=65057
loop_xfade=24191
lovel=1
lpc=eCp4QrUTJ8N0ewpD3H3EwZECJUG60PbBNngaQYYYPb+qsxVBDw60wFDwicAGZVc/hwafQEWoWr/fs4a/4VipvzqYAUC+KX+/RbZFPktRTz/wkPO/q7j/P9cYnr8Z08s+
lpc_rms=-54.99
offset=705
pitch_keycenter=G#3
sample=Trombone_Muted_PP_G#4.opus
tune=+7
</region>

<region>
hikey=A4
hivel=127
lokey=G#4
loop_end=182108
loop_mode=loop_continuous
loop_start=61539
loop_xfade=22883
lovel=1
lpc=QsPIQlpBkcNNi4tDOr2lwkdSq0E7anfCx2Y0QveX9MDrhBdBGzHjwZVngUEU1a/AaWsyQatZTkD0pTDBOhhgQPsjA8E37BJB1X4IQdcbG8FxC8LAHtAOwbKO4kHEkl3B
lpc_rms=-48.78
offset=531
pitch_keycenter=G#4
sample=Trombone_Muted_PP_G#5.opus
tune=-12
</region>
</group>

<group>
group_label=MF
lpc_hicc1=84
lpc_locc1=43

<region>
hikey=B2
hivel=127
lokey=A#2
loop_end=185022
loop_mode=loop_continuous
loop_start=62523
loop_xfade=23249
lovel=1
lpc=RexJQirFNMMoPIVDrV5Iw5hDpEK1GBfCTCw0QiLKFcIWuoxBghZNwUNxmEFvT6XBN0VpQd+PCsGLNh9ArqUqQUH7ncGCnzZBXEhaQAQGt8C4ujLA1wf3QOWup8C4dsk/
lpc_rms=-47.06
offset=2332
pitch_keycenter=A#2
sample=Trombone_Muted_MF_A#3.opus
tune=-32
</region>

<region>
hikey=B3
hivel=127
lokey=A#3
loop_end=174817
loop_mode=loop_continuous
loop_start=59075
loop_xfade=21967
lovel=1
lpc=RcWsQoLCqMPRfQ1EedQGxO5srUMmn07DmKkZQzWqy8JKYwlCE0InwBk7REGuu4LBVft5wNyAjkHjM7TA9V4IwfxzFEF4H2TB3mapQYyYW8HlsqBAG22/wHMdvEBthe6/
lpc_rms=-38.87
offset=1000
pitch_keycenter=A#3
sample=Trombone_Muted_MF_A#4.opus
tune=-1
</region>

<region>
hivel=127
key=A#4
loop_end=182431
loop_mode=loop_continuous
loop_start=61648
loop_xfade=22923
lovel=1
lpc=VbKHQXaEW8IkJrVCcvDYwkAg4EI7z9LCmz21QmLOkMIlBmlC6RxCwpHLIUKh7gzCm5//QWkv4sGA779BAX2KwfOe/EDmJNQ/ypgZwct1akGvNoXBglSAQRt2J8GYml9A
lpc_rms=-39.12
offset=237
sample=Trombone_Muted_MF_A#5.opus
tune=-7
</region>

<region>
hikey=C#3
hivel=127
lokey=C3
loop_end=189705
loop_mode=loop_continuous
loop_start=64106
loop_xfade=23837
lovel=1
lpc=RrwXQsugCsMvPVtDEOs9wywAuEL+rr3BagsxQSQtb8FfACFBos6fwJtn8ECdOxDBxNuDQAgjHL9Z9hpADBn2v54CFcDW0lJA16bVPRZkWz9oew/BpNZeQTiXFsFSJSpA
lpc_rms=-49.94
offset=1949
pitch_keycenter=C3
sample=Trombone_Muted_MF_C4.opus
tune=-10
</region>

<region>
hikey=C#4
hivel=127
lokey=C4
loop_end=191392
loop_mode=loop_continuous
loop_start=64676
loop_xfade=24049
lovel=1
lpc=7zRsQqK6bsMYR9dDQ6jhw6JvmENyURPDZWeNQqjiUMKGLChCUEyqwXgqI0DVV3tAviMBwFxvosA+lzJBP5GXwDbe6MBZGOFALs8Bvqr8SkCzBj7BIHdQQW4B5cAvF/A/
lpc_rms=-42.30
offset=308
sample=Trombone_Muted_MF_C5.opus
tune=-6
</region>

<region>
hikey=D#3
hivel=127
lokey=D3
loop_end=183500
loop_mode=loop_continuous
loop_start=62009
loop_xfade=23058
lovel=1
lpc=rZSRQqX8iMM0udJDWxqmw/kDHkMWRsHCR/K0Qi0+VsKDVLRBaF0xwWw0ccB7Bh5Bsd9VwNrU/b8vschAKQScwFOnqcDPnMFAenJaQTDGBsIJmAJCop+FwWe/Z0DY66I+
lpc_rms=-43.96
offset=345
pitch_keycenter=D3
sample=Trombone_Muted_MF_D4.opus
tune=-19
</region>

<region>
hikey=D#4
hivel=127
lokey=D4
loop_end=189665
loop_mode=loop_continuous
loop_start=64092
loop_xfade=23833
lovel=1
lpc=oWVkQm/dbsMBfuFDnw75w8S5rEO8SRLDFwoxQkBGLcJMn1dCshvXwc9pcL+L5EnAxJWLQcGdgsEJ0IdA7gGoQD1n1cDfr4dANs6av2BqtcCGV0BBDIcUwcqdGECLL6Q+
lpc_rms=-41.95
offset=539
pitch_keycenter=D4
sample=Trombone_Muted_MF_D5.opus
tune=-1
</region>

<region>
hikey=F2
hivel=127
lokey=E2
loop_end=191482
loop_mode=loop_continuous
loop_start=64707
loop_xfade=24061
lovel=1
lpc=AkFOQkbbHcNK8SpDvAN7wphJzT/2R5rB/KSYQXMUHsCjZC1AJv2zv3CNksCYurA/TzlxQALGhcC7gBs+ZrZEQI9AOj+Dx33AU3lkPk9kEUB2YNw+LdkbwOdIjj/gsGY+
lpc_rms=-54.44
offset=6408
pitch_keycenter=E2
sample=Trombone_Muted_MF_E3.opus
tune=-27
</region>

<region>
hikey=F3
hivel=127
lokey=E3
loop_end=189463
loop_mode=loop_continuous
loop_start=64024
loop_xfade=23807
lovel=1
lpc=/VmXQj0lhsPEP8FDeCqPw8NLB0NSGKnC5qSVQotsQ8IDmOBBPO2UwYTszEDYMkhBHhauwZe3mUC4FH5BXltTwWGavUAIoyfBm7NeQSnrzcDHQibBA7fdQReU08EVwxtB
lpc_rms=-43.83
offset=1308
pitch_keycenter=E3
sample=Trombone_Muted_MF_E4.opus
tune=-18
</region>

<region>
hikey=F4
hivel=127
lokey=E4
loop_end=183985
loop_mode=loop_continuous
loop_start=62173
loop_xfade=23119
lovel=1
lpc=X3tJQlXWR8PH9rdDzjfTw7InsEMxH2vDWjoKQ9Lzs8LabpxCnrqMwuNRTEJSgJ/BxakzwR9OoUEY0dXAv8QvwFzlLkBebJ7AVpoMQdAj7MCku9c9k4wZQfkPMsGnZZFA
lpc_rms=-39.42
offset=1388
pitch_keycenter=E4
sample=Trombone_Muted_MF_E5.opus
tune=-15
</region>

<region>
hikey=G2
hivel=127
lokey=F#2
loop_end=191624
loop_mode=loop_continuous
loop_start=64755
loop_xfade=24078
lovel=1
lpc=leo3QvgKGcM3wkdDpdz3wgVDKUK0U8XBzNuvQV5ESMFgW3JBB/W6wfS+jkEHYty9RsxNwVs5AUEIiqRAdELbwChu2b88lrpA8kmNwJLFuj8zEFNA5Sm5wCAWT0B0VtC+
lpc_rms=-51.55
offset=827
pitch_keycenter=F#2
sample=Trombone_Muted_MF_F#3.opus
tune=-20
</region>

<region>
hikey=G3
hivel=127
lokey=F#3
loop_end=191819
loop_mode=loop_continuous
loop_start=64820
loop_xfade=24103
lovel=1
lpc=B1WRQniujsPTEOxDdGLNw144SUM1q7XCzMGyQtq2h8IOULVBmWEFwad8qkAWdgpBmUAbwYqUA8ER6IpBDEZ8wCReYcGL+kpBsULjP0eCScByeQbBQRswQS6OfMDveTc+
lpc_rms=-42.75
offset=563
pitch_keycenter=F#3
sample=Trombone_Muted_MF_F#4.opus
tune=-11
</region>

<region>
hikey=G4
hivel=127
lokey=F#4
loop_end=187263
loop_mode=loop_continuous
loop_start=63281
loop_xfade=23531
lovel=1
lpc=7nRpQjn1aMPgHc5DjcbUwywHmUP4nE/DVKknQ64tBMP5HrhCuop+wrswKkKk+NLBdL29QSEKAsLxKAlCtKpmwXo1IsGV6CVBmXy5QHEfkcBe4GvBNaa6QdWKYcEbNmBA
lpc_rms=-39.95
offset=11
pitch_keycenter=F#4
sample=Trombone_Muted_MF_F#5.opus
tune=-13
</region>

<region>
hikey=A2
hivel=127
lokey=G#2
loop_end=188816
loop_mode=loop_continuous
loop_start=63806
loop_xfade=23726
lovel=1
lpc=J0BSQpX2LsPCXWdDlhoTw+dsQ0IQQOjBzH4LQuAgssHlW3dB+VemwWargUEuUWrAww0KwJWxCEDLo7LAnhJEQeolcsEkN1BBzLsbwY+0rECDzeQ+ygVuwCukDEDLZ5G9
lpc_rms=-49.31
offset=482
pitch_keycenter=G#2
sample=Trombone_Muted_MF_G#3.opus
tune=-24
</region>

<region>
hikey=A3
hivel=127
lokey=G#3
loop_end=192969
loop_mode=loop_continuous
loop_start=65209
loop_xfade=24248
lovel=1
lpc=UxuVQj0SjcPAGONDLufNw9p1gENIJxvD/3LiQv77o8JxLFNCX33zwXJrY0HODwvA/wEmwHQVicA7Il1BEe43wa6KiT/6rORAAIBnwZiBrkECrbXBaNuPQeVYL8F91mRA
lpc_rms=-41.05
offset=234
pitch_keycenter=G#3
sample=Trombone_Muted_MF_G#4.opus
tune=-1
</region>

<region>
hikey=A4
hivel=127
lokey=G#4
loop_end=187788
loop_mode=loop_continuous
loop_start=63458
loop_xfade=23597
lovel=1
lpc=1RW2QhjyusNPMy5E9L5BxH3EE0S+LL/DqHuOQ03hYcNQRQhDWrlcwnY5u0GvQIHBywR6QDxQD0CwBOvA7+8jQv2uncK9rHRCoUvLwOOvtMA6pODBbw4zQtbA5sHFBwtB
lpc_rms=-34.16
offset=1375
pitch_keycenter=G#4
sample=Trombone_Muted_MF_G#5.opus
tune=-24
</region>
</group>

<group>
group_label=FF
lpc_hicc1=127
lpc_locc1=85

<region>
hikey=B2
hivel=127
lokey=A#2
loop_end=186992
loop_mode=loop_continuous
loop_start=63189
loop_xfade=23497
lovel=1
lpc=Z0OfQFLzOcFuwmVB4K1Wwa2BPEFp/xvByyj7QNKnvMD8MpBA3FVVwCrQKEBykhjAaUIWQLVjG8AWD/o/jACcv6eWaD+HnYC/589iP+7Upb79gEi+EV6iPiy9q74JnQE+
lpc_rms=-37.60
pitch_keycenter=A#2
sample=Trombone_Muted_FF_A#3.opus
tune=-29
</region>

<region>
hikey=B3
hivel=127
lokey=A#3
loop_end=188696
loop_mode=loop_continuous
loop_start=63765
loop_xfade=23711
lovel=1
lpc=SjbqQCJJlsGro71B3eOxwcs4mkFljG/BNNglQf9nz8D8HElAfqowv2IZDL1XRds+bLe+v4HmFEDlsynAgTc0QMLODcBDrZY/5D9Rv7upkz4oTdI8L2XTPhOGO7/SDJ8+
lpc_rms=-33.19
offset=574
pitch_keycenter=A#3
sample=Trombone_Muted_FF_A#4.opus
tune=-8
</region>

<region>
hivel=127
key=A#4
loop_end=185859
loop_mode=loop_continuous
loop_start=62807
loop_xfade=23354
lovel=1
lpc=PBdSQFzUosA4zJFA/mNywB2RVUAtoeO/21+eP7bKtb5Rfac+DqKFPUTYRb6tyRc9kNqyPfh0dT2/T8E9o+INP+eqRr9JYxM/qmzrvrrdDz7nQq89IzFOvmgX1j7CR1O+
lpc_rms=-28.83
offset=744
sample=Trombone_Muted_FF_A#5.opus
tune=-12
</region>

<region>
hikey=C#3
hivel=127
lokey=C3
loop_end=190095
loop_mode=loop_continuous
loop_start=64238
loop_xfade=23886
lovel=1
lpc=hrRgQCbq4MATD/hAYHPZwDzKv0BUNJjAS3xrQNPEK8BCyBNATtXsv3v/tz+5/oG/vKpHP7MtIr/7wf4+RKhGvtXJhzxcSxE+PbNEvgfbPj6qWQG+owEhvXdZ4z3ac0i9
lpc_rms=-40.57
offset=26
pitch_keycenter=C3
sample=Trombone_Muted_FF_C4.opus
tune=-10
</region>

<region>
hikey=C#4
hivel=127
lokey=C4
loop_end=186824
loop_mode=loop_continuous
loop_start=63132
loop_xfade=23476
lovel=1
lpc=WpO6QEpzW8HwvYBBjKRnwX5aW0EkQkPBIloXQUJV4sCSRcFAXyOdwBqAZ0DQ7SPAX4QbQOPDFsCfdgpArEDxvy2x+D+w98K/EUiEPx+xV79pXgY/D3dMvt/5Fz6vAvq9
lpc_rms=-34.15
offset=516
sample=Trombone_Muted_FF_C5.opus
tune=-18
</region>

<region>
hikey=D#3
hivel=127
lokey=D3
loop_end=189037
loop_mode=loop_continuous
loop_start=63880
loop_xfade=23754
lovel=1
lpc=SY2mQOvvTMH4x4JBtqd6wYCgYEHU3z7BKxcUQeNe2MDAv6RAJQ6FwMtjZEBo4UPAhaIXQF4xxr+t2CA/e5OXvIR2276dyw8/MZnkvgMjdj7T9hq+9r0XPqK3q74opog+
lpc_rms=-37.46
offset=350
pitch_keycenter=D3
sample=Trombone_Muted_FF_D4.opus
tune=-25
</region>

<region>
hikey=D#4
hivel=127
lokey=D4
loop_end=187257
loop_mode=loop_continuous
loop_start=63279
loop_xfade=23530
lovel=1
lpc=X3m9QKdOXcFu3YNBSVl0wbTyX0HkvTnBvj8HQYk+tMBkoIhAlexmwOSEZ0DXBm/An9dcQKxNIcAW1NY/JZdiv45Yoj66mDm+O+E+PtZZ574HySo/jFDhvmhaT75eInk+
lpc_rms=-31.13
offset=171
pitch_keycenter=D4
sample=Trombone_Muted_FF_D5.opus
tune=-7
</region>

<region>
hikey=F2
hivel=127
lokey=E2
loop_end=188086
loop_mode=loop_continuous
loop_start=63559
loop_xfade=23634
lovel=1
lpc=Z22uQAh8QsFtB1hBf008wXruJEHmgwbBJOzSQAddocDnUIZAUVVdwIDfL0BycArA8fbYP88+ob+j7AQ/gretPV9H1b4P/ew+FpoJv+Yk2T7DZ6C+TBUuPos7br4yVdA9
lpc_rms=-42.45
offset=751
pitch_keycenter=E2
sample=Trombone_Muted_FF_E3.opus
tune=-24
</region>

<region>
hikey=F3
hivel=127
lokey=E3
loop_end=186854
loop_mode=loop_continuous
loop_start=63143
loop_xfade=23479
lovel=1
lpc=i6AMQdouw8Ez2w1C0K8UwqZCCUKnYenBQRe+QUyklMFfXnZBvUxHwSxqHkFfgOzAnQO7QOYBi8C4nVNAvWsPwK3wvD9tK1q/cwNjP3CMlL9Rj4s/Iou+vvgvH71EvoA9
lpc_rms=-34.62
offset=51
pitch_keycenter=E3
sample=Trombone_Muted_FF_E4.opus
tune=-32
</region>

<region>
hikey=F4
hivel=127
lokey=E4
loop_end=181426
loop_mode=loop_continuous
loop_start=61309
loop_xfade=22797
lovel=1
lpc=rA6lQKRBM8FO9UVBHpkqwU4dG0EzNQPB38jSQO9jkcBXazdA8krkvzgO7z+8owLAzvgaQADDJMBgByBA38/Iv6xTTD+agAu/09CoPcyfgT9XoMu/gdGnP4jGPb9BT8o+
lpc_rms=-32.42
offset=2474
pitch_keycenter=E4
sample=Trombone_Muted_FF_E5.opus
tune=-7
</region>

<region>
hikey=G2
hivel=127
lokey=F#2
loop_end=189227
loop_mode=loop_continuous
loop_start=63945
loop_xfade=23777
lovel=1
lpc=vOOGQNQyEMEurSZBbMQUwZWVAEFSs8vAsZGhQLJ3asBakDZA+7IPwB8L4T/Lv86/e8LJP+Jlr7+GL3g/CpIUv7pv7z5Ruxm/5dXdPq/Izr4JaZs+1DKHvt6pUT4vGWG+
lpc_rms=-40.96
offset=609
pitch_keycenter=F#2
sample=Trombone_Muted_FF_F#3.opus
tune=-18
</region>

<region>
hikey=G3
hivel=127
lokey=F#3
loop_end=186593
loop_mode=loop_continuous
loop_start=63055
loop_xfade=23446
lovel=1
lpc=5jmcQLhvJ8HlgDtB3oslwWpmFEFeRPjAvwDGQOXPk8ATTG9A6hI1wBFACUDsWeu/AC3VPw9ohr9OrSw+izujPoZLGb87lCo/Wt40v9N16j6jBea+s0+7PnArtL7Tt5g9
lpc_rms=-34.68
offset=336
pitch_keycenter=F#3
sample=Trombone_Muted_FF_F#4.opus
tune=-12
</region>

<region>
hikey=G4
hivel=127
lokey=F#4
loop_end=182315
loop_mode=loop_continuous
loop_start=61609
loop_xfade=22909
lovel=1
lpc=Wa1WQFNlwcDfP7pAkgSBwPNEREDhdwzAyyHDP389sL4Lpd69JylBPhKEZD5SmuG8ggnVPDGQcT1T7GC+mJJ9PjbQRT5RoPe+BYLkPvMmeL7xQMk9dKWyPREnhL7tXyY9
lpc_rms=-29.41
offset=504
pitch_keycenter=F#4
sample=Trombone_Muted_FF_F#5.opus
tune=-30
</region>

<region>
hikey=A2
hivel=127
lokey=G#2
loop_end=189194
loop_mode=loop_continuous
loop_start=63933
loop_xfade=23773
lovel=1
lpc=cfuRQNMBH8EBMDpB478kwT20DEENut3AyHauQNyof8AWTldABVstwPw9EUC4PAHAORT0Pwvuxb8ml4Y/49cPv1KqxT7wQJ2+aAWQPoBxhL6ohC0+3xDnvZxxJT5Iu1m+
lpc_rms=-38.50
offset=424
pitch_keycenter=G#2
sample=Trombone_Muted_FF_G#3.opus
tune=-16
</region>

<region>
hikey=A3
hivel=127
lokey=G#3
loop_end=188159
loop_mode=loop_continuous
loop_start=63584
loop_xfade=23643
lovel=1
lpc=/E3tQHwQosEPxeRB24LuwZEV30G4yr/BRUSbQYgrbcFj/DJBPA0IwY5V00DR/JfAOSpnQIiOQcBTICZAkfwSwOAID0AithvAGFJGQBU+T8ABlR5ANtnPv64mWT9BWIS+
lpc_rms=-34.68
offset=359
pitch_keycenter=G#3
sample=Trombone_Muted_FF_G#4.opus
tune=-30
</region>

<region>
hikey=A4
hivel=127
lokey=G#4
loop_end=178530
loop_mode=loop_continuous
loop_start=60330
loop_xfade=22433
lovel=1
lpc=bFOTQGB4HMGQZzNBHBwXwXfn/EDXq8jAV8KnQLAKbsD+CShAKkSzv2EOnD//B4u/AgfWP9X9BsAHgQhA2SeCv6kKYT9dg7+/ITTCP7+9Er8Gj42+Xn9wPwFxX7/x/cA+
lpc_rms=-29.66
offset=1011
pitch_keycenter=G#4
sample=Trombone_Muted_FF_G#5.opus
tune=-23
</region>
</group>